<svg xmlns="http://www.w3.org/2000/svg" xmlns:xlink="http://www.w3.org/1999/xlink" width="121" height="90" version="1.1" viewBox="0 0 121 90"><title>stats</title><desc>Created with Sketch.</desc><defs><rect id="path-1" width="1" height="90" x="20" y="0"/><mask id="mask-2" width="1" height="90" x="0" y="0" fill="#fff" maskContentUnits="userSpaceOnUse" maskUnits="objectBoundingBox"><use xlink:href="#path-1"/></mask><rect id="path-3" width="1" height="90" x="40" y="0"/><mask id="mask-4" width="1" height="90" x="0" y="0" fill="#fff" maskContentUnits="userSpaceOnUse" maskUnits="objectBoundingBox"><use xlink:href="#path-3"/></mask><rect id="path-5" width="1" height="90" x="60" y="0"/><mask id="mask-6" width="1" height="90" x="0" y="0" fill="#fff" maskContentUnits="userSpaceOnUse" maskUnits="objectBoundingBox"><use xlink:href="#path-5"/></mask><rect id="path-7" width="1" height="90" x="80" y="0"/><mask id="mask-8" width="1" height="90" x="0" y="0" fill="#fff" maskContentUnits="userSpaceOnUse" maskUnits="objectBoundingBox"><use xlink:href="#path-7"/></mask><rect id="path-9" width="1" height="90" x="100" y="0"/><mask id="mask-10" width="1" height="90" x="0" y="0" fill="#fff" maskContentUnits="userSpaceOnUse" maskUnits="objectBoundingBox"><use xlink:href="#path-9"/></mask><rect id="path-11" width="1" height="90" x="120" y="0"/><mask id="mask-12" width="1" height="90" x="0" y="0" fill="#fff" maskContentUnits="userSpaceOnUse" maskUnits="objectBoundingBox"><use xlink:href="#path-11"/></mask><rect id="path-13" width="120" height="1" x="0" y="69"/><mask id="mask-14" width="120" height="1" x="0" y="0" fill="#fff" maskContentUnits="userSpaceOnUse" maskUnits="objectBoundingBox"><use xlink:href="#path-13"/></mask><rect id="path-15" width="120" height="1" x="0" y="49"/><mask id="mask-16" width="120" height="1" x="0" y="0" fill="#fff" maskContentUnits="userSpaceOnUse" maskUnits="objectBoundingBox"><use xlink:href="#path-15"/></mask><rect id="path-17" width="120" height="1" x="0" y="29"/><mask id="mask-18" width="120" height="1" x="0" y="0" fill="#fff" maskContentUnits="userSpaceOnUse" maskUnits="objectBoundingBox"><use xlink:href="#path-17"/></mask><rect id="path-19" width="120" height="1" x="0" y="9"/><mask id="mask-20" width="120" height="1" x="0" y="0" fill="#fff" maskContentUnits="userSpaceOnUse" maskUnits="objectBoundingBox"><use xlink:href="#path-19"/></mask><linearGradient id="linearGradient-21" x1="17.309%" x2="0%" y1="36.917%" y2="100%"><stop offset="0%" stop-color="#6B60E9" stop-opacity=".197"/><stop offset="100%" stop-color="#6B60E9" stop-opacity="0"/></linearGradient></defs><g id="Web-Design-v2" fill="none" fill-rule="evenodd" stroke="none" stroke-width="1"><g id="Home" transform="translate(-900.000000, -2678.000000)"><g id="Features" transform="translate(360.000000, 1802.000000)"><g id="Feature-1" transform="translate(316.000000, 873.000000)"><g id="stats" transform="translate(224.000000, 0.000000)"><g id="Group-3" transform="translate(0.000000, 3.000000)"><use id="Rectangle" stroke="#DEE2EA" stroke-dasharray="2" stroke-width="2" mask="url(#mask-2)" xlink:href="#path-1"/><use id="Rectangle" stroke="#DEE2EA" stroke-dasharray="2" stroke-width="2" mask="url(#mask-4)" xlink:href="#path-3"/><use id="Rectangle" stroke="#DEE2EA" stroke-dasharray="2" stroke-width="2" mask="url(#mask-6)" xlink:href="#path-5"/><use id="Rectangle" stroke="#DEE2EA" stroke-dasharray="2" stroke-width="2" mask="url(#mask-8)" xlink:href="#path-7"/><use id="Rectangle" stroke="#DEE2EA" stroke-dasharray="2" stroke-width="2" mask="url(#mask-10)" xlink:href="#path-9"/><use id="Rectangle" stroke="#DEE2EA" stroke-dasharray="2" stroke-width="2" mask="url(#mask-12)" xlink:href="#path-11"/><use id="Rectangle" stroke="#DEE2EA" stroke-dasharray="2" stroke-width="2" mask="url(#mask-14)" xlink:href="#path-13"/><use id="Rectangle" stroke="#DEE2EA" stroke-dasharray="2" stroke-width="2" mask="url(#mask-16)" xlink:href="#path-15"/><use id="Rectangle" stroke="#DEE2EA" stroke-dasharray="2" stroke-width="2" mask="url(#mask-18)" xlink:href="#path-17"/><use id="Rectangle" stroke="#DEE2EA" stroke-dasharray="2" stroke-width="2" mask="url(#mask-20)" xlink:href="#path-19"/><polygon id="Path-3" fill="url(#linearGradient-21)" stroke="#6B60E9" stroke-linecap="round" stroke-linejoin="round" stroke-width="2" points="1 2 55 87 119 87 119 89 1 89"/><rect id="Rectangle" width="2" height="90" x="0" y="0" fill="#DEE2EA"/><rect id="Rectangle" width="120" height="2" x="0" y="88" fill="#DEE2EA"/></g><g id="Group-2" fill="#6B60E9" transform="translate(35.000000, 0.000000)"><text id="98%" font-family="Roboto-Bold, Roboto" font-size="32" font-weight="bold" letter-spacing=".571"><tspan x="22" y="29.5">98%</tspan></text><polygon id="Path-4" points="4.615 7.789 4.615 20.755 0 20.755 7.5 30.184 15 20.755 10.385 20.755 10.385 7.789"/></g></g></g></g></g></g></svg>